<svg width="24" height="24" viewBox="0 0 24 24" fill="none" xmlns="http://www.w3.org/2000/svg">
    <path
        d="M2.40246 19.6152C3.72486 19.6152 4.79687 18.543 4.79687 17.2204C4.79687 15.8979 3.72486 14.8257 2.40246 14.8257C1.08007 14.8257 0.00805664 15.8979 0.00805664 17.2204C0.00805664 18.543 1.08007 19.6152 2.40246 19.6152Z"
        fill="#35495E" />
    <path d="M23.9941 4.39453H19.1082V9.28048H23.9941V4.39453Z" fill="#35495E" />
    <path fill-rule="evenodd" clip-rule="evenodd"
        d="M11.1943 4.3946C11.1943 4.3946 11.1943 9.10966 11.1943 14.7731C11.1943 16.0649 10.6782 17.3031 9.76067 18.2124C8.84319 19.1216 7.60047 19.6265 6.30893 19.6146C6.30853 19.6146 6.30835 19.6146 6.30835 19.6146V4.39453H11.1943V4.3946Z"
        fill="#35495E" />
    <path d="M17.5913 4.39453H12.7053V19.6146H17.5913V4.39453Z" fill="#35495E" />
</svg>
